<mxfile host="Electron" modified="2023-04-24T14:42:40.121Z" agent="Mozilla/5.0 (X11; Linux x86_64) AppleWebKit/537.36 (KHTML, like Gecko) draw.io/21.2.1 Chrome/112.0.5615.87 Electron/24.1.2 Safari/537.36" etag="Doa1UUaYhLON9Wn0Em3M" version="21.2.1" type="device">
  <diagram name="Page-1" id="WpkoCbkD2GTZ16Bm78LT">
    <mxGraphModel dx="1580" dy="1241" grid="1" gridSize="10" guides="1" tooltips="1" connect="1" arrows="1" fold="1" page="0" pageScale="1" pageWidth="827" pageHeight="1169" math="0" shadow="0">
      <root>
        <mxCell id="0" />
        <mxCell id="1" parent="0" />
        <mxCell id="Gud-aHtuFvEA1j-dhCJr-18" style="edgeStyle=orthogonalEdgeStyle;rounded=1;orthogonalLoop=1;jettySize=auto;html=1;entryX=0.5;entryY=0;entryDx=0;entryDy=0;strokeColor=#A8201A;fontColor=default;fillColor=#FAE5C7;labelBackgroundColor=none;" edge="1" parent="1" source="Gud-aHtuFvEA1j-dhCJr-1" target="Gud-aHtuFvEA1j-dhCJr-5">
          <mxGeometry relative="1" as="geometry">
            <Array as="points">
              <mxPoint x="360" y="-160" />
              <mxPoint x="240" y="-160" />
            </Array>
          </mxGeometry>
        </mxCell>
        <mxCell id="Gud-aHtuFvEA1j-dhCJr-19" style="edgeStyle=orthogonalEdgeStyle;rounded=1;orthogonalLoop=1;jettySize=auto;html=1;strokeColor=#A8201A;fontColor=default;fillColor=#FAE5C7;labelBackgroundColor=none;" edge="1" parent="1" source="Gud-aHtuFvEA1j-dhCJr-1" target="Gud-aHtuFvEA1j-dhCJr-6">
          <mxGeometry relative="1" as="geometry" />
        </mxCell>
        <mxCell id="Gud-aHtuFvEA1j-dhCJr-20" style="edgeStyle=orthogonalEdgeStyle;rounded=1;orthogonalLoop=1;jettySize=auto;html=1;entryX=0.5;entryY=0;entryDx=0;entryDy=0;strokeColor=#A8201A;fontColor=default;fillColor=#FAE5C7;labelBackgroundColor=none;" edge="1" parent="1" source="Gud-aHtuFvEA1j-dhCJr-1" target="Gud-aHtuFvEA1j-dhCJr-7">
          <mxGeometry relative="1" as="geometry">
            <Array as="points">
              <mxPoint x="360" y="-160" />
              <mxPoint x="480" y="-160" />
            </Array>
          </mxGeometry>
        </mxCell>
        <mxCell id="Gud-aHtuFvEA1j-dhCJr-1" value="ptrn-binary" style="whiteSpace=wrap;html=1;aspect=fixed;labelBackgroundColor=none;fillColor=#FAE5C7;strokeColor=#0F8B8D;fontColor=#143642;rounded=1;" vertex="1" parent="1">
          <mxGeometry x="320" y="-320" width="80" height="80" as="geometry" />
        </mxCell>
        <mxCell id="Gud-aHtuFvEA1j-dhCJr-5" value="error lib" style="whiteSpace=wrap;html=1;aspect=fixed;strokeColor=#0F8B8D;fontColor=#143642;fillColor=#FAE5C7;rounded=1;labelBackgroundColor=none;" vertex="1" parent="1">
          <mxGeometry x="200" y="-120" width="80" height="80" as="geometry" />
        </mxCell>
        <mxCell id="Gud-aHtuFvEA1j-dhCJr-6" value="argv management" style="whiteSpace=wrap;html=1;aspect=fixed;strokeColor=#0F8B8D;fontColor=#143642;fillColor=#FAE5C7;rounded=1;labelBackgroundColor=none;" vertex="1" parent="1">
          <mxGeometry x="320" y="-120" width="80" height="80" as="geometry" />
        </mxCell>
        <mxCell id="Gud-aHtuFvEA1j-dhCJr-14" style="edgeStyle=orthogonalEdgeStyle;rounded=1;orthogonalLoop=1;jettySize=auto;html=1;entryX=0.5;entryY=0;entryDx=0;entryDy=0;strokeColor=#A8201A;fontColor=default;fillColor=#FAE5C7;labelBackgroundColor=none;" edge="1" parent="1" source="Gud-aHtuFvEA1j-dhCJr-7" target="Gud-aHtuFvEA1j-dhCJr-8">
          <mxGeometry relative="1" as="geometry">
            <Array as="points">
              <mxPoint x="480" />
              <mxPoint x="420" />
            </Array>
          </mxGeometry>
        </mxCell>
        <mxCell id="Gud-aHtuFvEA1j-dhCJr-15" style="edgeStyle=orthogonalEdgeStyle;rounded=1;orthogonalLoop=1;jettySize=auto;html=1;entryX=0.5;entryY=0;entryDx=0;entryDy=0;strokeColor=#A8201A;fontColor=default;fillColor=#FAE5C7;labelBackgroundColor=none;" edge="1" parent="1" source="Gud-aHtuFvEA1j-dhCJr-7" target="Gud-aHtuFvEA1j-dhCJr-11">
          <mxGeometry relative="1" as="geometry">
            <Array as="points">
              <mxPoint x="480" />
              <mxPoint x="520" />
            </Array>
          </mxGeometry>
        </mxCell>
        <mxCell id="Gud-aHtuFvEA1j-dhCJr-16" style="edgeStyle=orthogonalEdgeStyle;rounded=1;orthogonalLoop=1;jettySize=auto;html=1;strokeColor=#A8201A;fontColor=default;fillColor=#FAE5C7;labelBackgroundColor=none;" edge="1" parent="1" source="Gud-aHtuFvEA1j-dhCJr-7" target="Gud-aHtuFvEA1j-dhCJr-12">
          <mxGeometry relative="1" as="geometry">
            <mxPoint x="480" as="targetPoint" />
            <Array as="points">
              <mxPoint x="480" />
              <mxPoint x="620" />
            </Array>
          </mxGeometry>
        </mxCell>
        <mxCell id="Gud-aHtuFvEA1j-dhCJr-17" style="edgeStyle=orthogonalEdgeStyle;rounded=1;orthogonalLoop=1;jettySize=auto;html=1;entryX=0.5;entryY=0;entryDx=0;entryDy=0;strokeColor=#A8201A;fontColor=default;fillColor=#FAE5C7;labelBackgroundColor=none;" edge="1" parent="1" source="Gud-aHtuFvEA1j-dhCJr-7" target="Gud-aHtuFvEA1j-dhCJr-13">
          <mxGeometry relative="1" as="geometry">
            <Array as="points">
              <mxPoint x="480" />
              <mxPoint x="720" />
            </Array>
          </mxGeometry>
        </mxCell>
        <mxCell id="Gud-aHtuFvEA1j-dhCJr-7" value="patterns" style="whiteSpace=wrap;html=1;aspect=fixed;strokeColor=#0F8B8D;fontColor=#143642;fillColor=#FAE5C7;rounded=1;labelBackgroundColor=none;" vertex="1" parent="1">
          <mxGeometry x="440" y="-120" width="80" height="80" as="geometry" />
        </mxCell>
        <mxCell id="Gud-aHtuFvEA1j-dhCJr-24" style="edgeStyle=orthogonalEdgeStyle;rounded=1;orthogonalLoop=1;jettySize=auto;html=1;entryX=0.5;entryY=0;entryDx=0;entryDy=0;strokeColor=#A8201A;fontColor=default;fillColor=#FAE5C7;labelBackgroundColor=none;" edge="1" parent="1" source="Gud-aHtuFvEA1j-dhCJr-8" target="Gud-aHtuFvEA1j-dhCJr-21">
          <mxGeometry relative="1" as="geometry">
            <Array as="points">
              <mxPoint x="420" y="170" />
              <mxPoint x="270" y="170" />
            </Array>
          </mxGeometry>
        </mxCell>
        <mxCell id="Gud-aHtuFvEA1j-dhCJr-25" style="edgeStyle=orthogonalEdgeStyle;rounded=1;orthogonalLoop=1;jettySize=auto;html=1;entryX=0.5;entryY=0;entryDx=0;entryDy=0;strokeColor=#A8201A;fontColor=default;fillColor=#FAE5C7;labelBackgroundColor=none;" edge="1" parent="1" source="Gud-aHtuFvEA1j-dhCJr-8" target="Gud-aHtuFvEA1j-dhCJr-22">
          <mxGeometry relative="1" as="geometry">
            <Array as="points">
              <mxPoint x="420" y="170" />
              <mxPoint x="360" y="170" />
            </Array>
          </mxGeometry>
        </mxCell>
        <mxCell id="Gud-aHtuFvEA1j-dhCJr-26" style="edgeStyle=orthogonalEdgeStyle;rounded=1;orthogonalLoop=1;jettySize=auto;html=1;strokeColor=#A8201A;fontColor=default;fillColor=#FAE5C7;labelBackgroundColor=none;" edge="1" parent="1" source="Gud-aHtuFvEA1j-dhCJr-8" target="Gud-aHtuFvEA1j-dhCJr-23">
          <mxGeometry relative="1" as="geometry">
            <Array as="points">
              <mxPoint x="420" y="170" />
              <mxPoint x="450" y="170" />
            </Array>
          </mxGeometry>
        </mxCell>
        <mxCell id="Gud-aHtuFvEA1j-dhCJr-8" value="triangle" style="whiteSpace=wrap;html=1;aspect=fixed;strokeColor=#0F8B8D;fontColor=#143642;fillColor=#FAE5C7;rounded=1;labelBackgroundColor=none;" vertex="1" parent="1">
          <mxGeometry x="380" y="50" width="80" height="80" as="geometry" />
        </mxCell>
        <mxCell id="Gud-aHtuFvEA1j-dhCJr-36" style="edgeStyle=orthogonalEdgeStyle;rounded=1;orthogonalLoop=1;jettySize=auto;html=1;entryX=0.5;entryY=0;entryDx=0;entryDy=0;strokeColor=#A8201A;fontColor=default;fillColor=#FAE5C7;labelBackgroundColor=none;" edge="1" parent="1" source="Gud-aHtuFvEA1j-dhCJr-11" target="Gud-aHtuFvEA1j-dhCJr-27">
          <mxGeometry relative="1" as="geometry">
            <Array as="points">
              <mxPoint x="520" y="170" />
              <mxPoint x="560" y="170" />
            </Array>
          </mxGeometry>
        </mxCell>
        <mxCell id="Gud-aHtuFvEA1j-dhCJr-37" style="edgeStyle=orthogonalEdgeStyle;rounded=1;orthogonalLoop=1;jettySize=auto;html=1;strokeColor=#A8201A;fontColor=default;fillColor=#FAE5C7;labelBackgroundColor=none;" edge="1" parent="1" source="Gud-aHtuFvEA1j-dhCJr-11" target="Gud-aHtuFvEA1j-dhCJr-28">
          <mxGeometry relative="1" as="geometry">
            <Array as="points">
              <mxPoint x="520" y="170" />
              <mxPoint x="650" y="170" />
            </Array>
          </mxGeometry>
        </mxCell>
        <mxCell id="Gud-aHtuFvEA1j-dhCJr-39" style="edgeStyle=orthogonalEdgeStyle;rounded=1;orthogonalLoop=1;jettySize=auto;html=1;entryX=0.5;entryY=0;entryDx=0;entryDy=0;strokeColor=#A8201A;fontColor=default;fillColor=#FAE5C7;labelBackgroundColor=none;" edge="1" parent="1" source="Gud-aHtuFvEA1j-dhCJr-11" target="Gud-aHtuFvEA1j-dhCJr-29">
          <mxGeometry relative="1" as="geometry">
            <Array as="points">
              <mxPoint x="520" y="170" />
              <mxPoint x="740" y="170" />
            </Array>
          </mxGeometry>
        </mxCell>
        <mxCell id="Gud-aHtuFvEA1j-dhCJr-11" value="square" style="whiteSpace=wrap;html=1;aspect=fixed;strokeColor=#0F8B8D;fontColor=#143642;fillColor=#FAE5C7;rounded=1;labelBackgroundColor=none;" vertex="1" parent="1">
          <mxGeometry x="480" y="50" width="80" height="80" as="geometry" />
        </mxCell>
        <mxCell id="Gud-aHtuFvEA1j-dhCJr-41" style="edgeStyle=orthogonalEdgeStyle;rounded=1;orthogonalLoop=1;jettySize=auto;html=1;entryX=0.5;entryY=0;entryDx=0;entryDy=0;strokeColor=#A8201A;fontColor=default;fillColor=#FAE5C7;labelBackgroundColor=none;" edge="1" parent="1" source="Gud-aHtuFvEA1j-dhCJr-12" target="Gud-aHtuFvEA1j-dhCJr-30">
          <mxGeometry relative="1" as="geometry">
            <Array as="points">
              <mxPoint x="620" y="160" />
              <mxPoint x="840" y="160" />
            </Array>
          </mxGeometry>
        </mxCell>
        <mxCell id="Gud-aHtuFvEA1j-dhCJr-42" style="edgeStyle=orthogonalEdgeStyle;rounded=1;orthogonalLoop=1;jettySize=auto;html=1;strokeColor=#A8201A;fontColor=default;fillColor=#FAE5C7;labelBackgroundColor=none;" edge="1" parent="1" source="Gud-aHtuFvEA1j-dhCJr-12" target="Gud-aHtuFvEA1j-dhCJr-32">
          <mxGeometry relative="1" as="geometry">
            <Array as="points">
              <mxPoint x="620" y="160" />
              <mxPoint x="1020" y="160" />
            </Array>
          </mxGeometry>
        </mxCell>
        <mxCell id="Gud-aHtuFvEA1j-dhCJr-43" style="edgeStyle=orthogonalEdgeStyle;rounded=1;orthogonalLoop=1;jettySize=auto;html=1;strokeColor=#A8201A;fontColor=default;fillColor=#FAE5C7;labelBackgroundColor=none;" edge="1" parent="1" source="Gud-aHtuFvEA1j-dhCJr-12" target="Gud-aHtuFvEA1j-dhCJr-31">
          <mxGeometry relative="1" as="geometry">
            <Array as="points">
              <mxPoint x="620" y="160" />
              <mxPoint x="930" y="160" />
            </Array>
          </mxGeometry>
        </mxCell>
        <mxCell id="Gud-aHtuFvEA1j-dhCJr-12" value="pentagon" style="whiteSpace=wrap;html=1;aspect=fixed;strokeColor=#0F8B8D;fontColor=#143642;fillColor=#FAE5C7;rounded=1;labelBackgroundColor=none;" vertex="1" parent="1">
          <mxGeometry x="580" y="50" width="80" height="80" as="geometry" />
        </mxCell>
        <mxCell id="Gud-aHtuFvEA1j-dhCJr-44" style="edgeStyle=orthogonalEdgeStyle;rounded=1;orthogonalLoop=1;jettySize=auto;html=1;strokeColor=#A8201A;fontColor=default;fillColor=#FAE5C7;labelBackgroundColor=none;" edge="1" parent="1" source="Gud-aHtuFvEA1j-dhCJr-13" target="Gud-aHtuFvEA1j-dhCJr-35">
          <mxGeometry relative="1" as="geometry">
            <Array as="points">
              <mxPoint x="720" y="150" />
              <mxPoint x="1340" y="150" />
            </Array>
          </mxGeometry>
        </mxCell>
        <mxCell id="Gud-aHtuFvEA1j-dhCJr-45" style="edgeStyle=orthogonalEdgeStyle;rounded=1;orthogonalLoop=1;jettySize=auto;html=1;strokeColor=#A8201A;fontColor=default;fillColor=#FAE5C7;labelBackgroundColor=none;" edge="1" parent="1" source="Gud-aHtuFvEA1j-dhCJr-13" target="Gud-aHtuFvEA1j-dhCJr-34">
          <mxGeometry relative="1" as="geometry">
            <Array as="points">
              <mxPoint x="720" y="150" />
              <mxPoint x="1250" y="150" />
            </Array>
          </mxGeometry>
        </mxCell>
        <mxCell id="Gud-aHtuFvEA1j-dhCJr-46" style="edgeStyle=orthogonalEdgeStyle;rounded=1;orthogonalLoop=1;jettySize=auto;html=1;entryX=0.5;entryY=0;entryDx=0;entryDy=0;strokeColor=#A8201A;fontColor=default;fillColor=#FAE5C7;labelBackgroundColor=none;" edge="1" parent="1" source="Gud-aHtuFvEA1j-dhCJr-13" target="Gud-aHtuFvEA1j-dhCJr-33">
          <mxGeometry relative="1" as="geometry">
            <Array as="points">
              <mxPoint x="720" y="150" />
              <mxPoint x="1160" y="150" />
            </Array>
          </mxGeometry>
        </mxCell>
        <mxCell id="Gud-aHtuFvEA1j-dhCJr-13" value="hexagon" style="whiteSpace=wrap;html=1;aspect=fixed;strokeColor=#0F8B8D;fontColor=#143642;fillColor=#FAE5C7;rounded=1;labelBackgroundColor=none;" vertex="1" parent="1">
          <mxGeometry x="680" y="50" width="80" height="80" as="geometry" />
        </mxCell>
        <mxCell id="Gud-aHtuFvEA1j-dhCJr-21" value="normal" style="whiteSpace=wrap;html=1;aspect=fixed;strokeColor=#0F8B8D;fontColor=#143642;fillColor=#FAE5C7;rounded=1;labelBackgroundColor=none;" vertex="1" parent="1">
          <mxGeometry x="230" y="200" width="80" height="80" as="geometry" />
        </mxCell>
        <mxCell id="Gud-aHtuFvEA1j-dhCJr-22" value="colour" style="whiteSpace=wrap;html=1;aspect=fixed;strokeColor=#0F8B8D;fontColor=#143642;fillColor=#FAE5C7;rounded=1;labelBackgroundColor=none;" vertex="1" parent="1">
          <mxGeometry x="320" y="200" width="80" height="80" as="geometry" />
        </mxCell>
        <mxCell id="Gud-aHtuFvEA1j-dhCJr-23" value="hollow" style="whiteSpace=wrap;html=1;aspect=fixed;strokeColor=#0F8B8D;fontColor=#143642;fillColor=#FAE5C7;rounded=1;labelBackgroundColor=none;" vertex="1" parent="1">
          <mxGeometry x="410" y="200" width="80" height="80" as="geometry" />
        </mxCell>
        <mxCell id="Gud-aHtuFvEA1j-dhCJr-27" value="normal" style="whiteSpace=wrap;html=1;aspect=fixed;strokeColor=#0F8B8D;fontColor=#143642;fillColor=#FAE5C7;rounded=1;labelBackgroundColor=none;" vertex="1" parent="1">
          <mxGeometry x="520" y="200" width="80" height="80" as="geometry" />
        </mxCell>
        <mxCell id="Gud-aHtuFvEA1j-dhCJr-28" value="colour" style="whiteSpace=wrap;html=1;aspect=fixed;strokeColor=#0F8B8D;fontColor=#143642;fillColor=#FAE5C7;rounded=1;labelBackgroundColor=none;" vertex="1" parent="1">
          <mxGeometry x="610" y="200" width="80" height="80" as="geometry" />
        </mxCell>
        <mxCell id="Gud-aHtuFvEA1j-dhCJr-29" value="hollow" style="whiteSpace=wrap;html=1;aspect=fixed;strokeColor=#0F8B8D;fontColor=#143642;fillColor=#FAE5C7;rounded=1;labelBackgroundColor=none;" vertex="1" parent="1">
          <mxGeometry x="700" y="200" width="80" height="80" as="geometry" />
        </mxCell>
        <mxCell id="Gud-aHtuFvEA1j-dhCJr-30" value="normal" style="whiteSpace=wrap;html=1;aspect=fixed;strokeColor=#0F8B8D;fontColor=#143642;fillColor=#FAE5C7;rounded=1;labelBackgroundColor=none;" vertex="1" parent="1">
          <mxGeometry x="800" y="200" width="80" height="80" as="geometry" />
        </mxCell>
        <mxCell id="Gud-aHtuFvEA1j-dhCJr-31" value="colour" style="whiteSpace=wrap;html=1;aspect=fixed;strokeColor=#0F8B8D;fontColor=#143642;fillColor=#FAE5C7;rounded=1;labelBackgroundColor=none;" vertex="1" parent="1">
          <mxGeometry x="890" y="200" width="80" height="80" as="geometry" />
        </mxCell>
        <mxCell id="Gud-aHtuFvEA1j-dhCJr-32" value="hollow" style="whiteSpace=wrap;html=1;aspect=fixed;strokeColor=#0F8B8D;fontColor=#143642;fillColor=#FAE5C7;rounded=1;labelBackgroundColor=none;" vertex="1" parent="1">
          <mxGeometry x="980" y="200" width="80" height="80" as="geometry" />
        </mxCell>
        <mxCell id="Gud-aHtuFvEA1j-dhCJr-33" value="normal" style="whiteSpace=wrap;html=1;aspect=fixed;strokeColor=#0F8B8D;fontColor=#143642;fillColor=#FAE5C7;rounded=1;labelBackgroundColor=none;" vertex="1" parent="1">
          <mxGeometry x="1120" y="200" width="80" height="80" as="geometry" />
        </mxCell>
        <mxCell id="Gud-aHtuFvEA1j-dhCJr-34" value="colour" style="whiteSpace=wrap;html=1;aspect=fixed;strokeColor=#0F8B8D;fontColor=#143642;fillColor=#FAE5C7;rounded=1;labelBackgroundColor=none;" vertex="1" parent="1">
          <mxGeometry x="1210" y="200" width="80" height="80" as="geometry" />
        </mxCell>
        <mxCell id="Gud-aHtuFvEA1j-dhCJr-35" value="hollow" style="whiteSpace=wrap;html=1;aspect=fixed;strokeColor=#0F8B8D;fontColor=#143642;fillColor=#FAE5C7;rounded=1;labelBackgroundColor=none;" vertex="1" parent="1">
          <mxGeometry x="1300" y="200" width="80" height="80" as="geometry" />
        </mxCell>
        <mxCell id="Gud-aHtuFvEA1j-dhCJr-51" value="&lt;font color=&quot;#ff0000&quot; style=&quot;font-size: 25px;&quot;&gt;?&lt;/font&gt;" style="text;html=1;align=center;verticalAlign=middle;resizable=0;points=[];autosize=1;strokeColor=none;fillColor=none;fontColor=#143642;rounded=1;labelBackgroundColor=none;" vertex="1" parent="1">
          <mxGeometry x="220" y="-80" width="40" height="40" as="geometry" />
        </mxCell>
        <mxCell id="Gud-aHtuFvEA1j-dhCJr-52" value="&lt;span style=&quot;color: rgb(255, 0, 0); font-family: Helvetica; font-size: 25px; font-style: normal; font-variant-ligatures: normal; font-variant-caps: normal; font-weight: 400; letter-spacing: normal; orphans: 2; text-align: center; text-indent: 0px; text-transform: none; widows: 2; word-spacing: 0px; -webkit-text-stroke-width: 0px; text-decoration-thickness: initial; text-decoration-style: initial; text-decoration-color: initial; float: none; display: inline !important;&quot;&gt;?&lt;/span&gt;" style="text;whiteSpace=wrap;html=1;fontColor=#143642;rounded=1;labelBackgroundColor=none;" vertex="1" parent="1">
          <mxGeometry x="350" y="-80" width="50" height="50" as="geometry" />
        </mxCell>
      </root>
    </mxGraphModel>
  </diagram>
</mxfile>
